<svg xmlns="http://www.w3.org/2000/svg" width="42" height="42" fill="none"><path fill="#fff" d="M.493 41.5h41.005V.5H.493z"/><path stroke="#18B5DC" d="M.493 41.5h41.005V.5H.493z"/><path fill="#18B5DC" d="M20.998 26.128A5.12 5.12 0 0 1 15.87 21a5.12 5.12 0 0 1 5.128-5.128A5.12 5.12 0 0 1 26.125 21a5.12 5.12 0 0 1-5.127 5.128Zm0-8.462A3.34 3.34 0 0 0 17.664 21a3.337 3.337 0 0 0 3.334 3.334A3.337 3.337 0 0 0 24.33 21a3.34 3.34 0 0 0-3.333-3.334Zm6.533 8.671c0-.665-.535-1.195-1.196-1.195a1.196 1.196 0 1 0 1.196 1.196Zm3.396-1.213c-.075 1.602-.441 3.02-1.615 4.19-1.17 1.17-2.588 1.535-4.19 1.616-1.652.093-6.601.093-8.252 0-1.598-.076-3.017-.442-4.19-1.611-1.175-1.17-1.536-2.589-1.616-4.19-.094-1.652-.094-6.601 0-8.253.075-1.602.441-3.02 1.615-4.19 1.174-1.17 2.588-1.535 4.19-1.616 1.652-.093 6.601-.093 8.252 0 1.603.076 3.022.442 4.19 1.616 1.17 1.17 1.536 2.588 1.616 4.19.094 1.652.094 6.596 0 8.248Zm-2.133-10.02a3.375 3.375 0 0 0-1.9-1.9c-1.317-.523-4.441-.402-5.896-.402s-4.584-.116-5.896.402a3.375 3.375 0 0 0-1.9 1.9c-.523 1.317-.402 4.441-.402 5.896s-.116 4.583.401 5.895a3.375 3.375 0 0 0 1.901 1.902c1.317.522 4.44.401 5.896.401 1.455 0 4.583.116 5.895-.401a3.375 3.375 0 0 0 1.901-1.902c.522-1.316.402-4.44.402-5.895 0-1.455.12-4.583-.402-5.895Z"/></svg>