<svg xmlns="http://www.w3.org/2000/svg" width="42" height="42" fill="none"><path fill="#fff" d="M.498 41.5h41.005V.5H.498z"/><path stroke="#18B5DC" d="M.498 41.5h41.005V.5H.498z"/><path fill="#18B5DC" d="M15.477 31H11.33V17.647h4.147V31ZM13.4 15.826C12.075 15.826 11 14.727 11 13.4a2.401 2.401 0 1 1 4.803 0c0 1.326-1.076 2.425-2.402 2.425ZM30.996 31h-4.138v-6.5c0-1.55-.031-3.536-2.156-3.536-2.155 0-2.486 1.683-2.486 3.424V31h-4.142V17.647h3.977v1.822h.058c.553-1.05 1.906-2.157 3.923-2.157 4.197 0 4.968 2.764 4.968 6.353V31h-.004Z"/></svg>