<svg xmlns="http://www.w3.org/2000/svg" width="170" height="60" fill="none"><g clip-path="url(#a)"><path fill="url(#b)" d="m35.589 9.244-4.57 5.18-8.013-7.003 4.57-5.18 8.013 7.003Z"/><path fill="#2E8FE7" d="m46.98 33.682 13.29 11.614-9.3 10.543-13.29-11.615-2.319-2.026 9.3-10.542 2.319 2.026Z"/><path fill="#2D3DCC" d="m35.266 46.96 2.926 2.557-7.079 8.025-5.244-4.583 1.546-1.753 5.533-6.272 2.318 2.026Z"/><path fill="#1578D3" d="m49.89 25.728 1.986-2.251 5.245 4.583-4.57 5.18-2.926-2.557 2.584-2.93-2.318-2.025Zm-.265 4.955-2.318-2.026 2.584-2.93 2.318 2.027-2.584 2.93Z"/><path fill="#2FD6FF" d="m11.128 36.973-1.546 1.753-8.014-7.003 7.079-8.025 5.617 4.909 2.397 2.094-5.533 6.272Z"/><path fill="#1578D3" d="m28.375 17.423-9.3 10.543-2.397-2.095L3.512 14.366l9.3-10.543 13.166 11.505 2.397 2.095Z"/><path fill="#94EAFF" d="m33.604 11.495-2.584 2.93-2.397-2.095-5.617-4.909 4.57-5.18 8.014 7.003-1.986 2.251Z"/><path fill="#18B5DC" d="M17.156 59.848 4.015 48.278l41.137-46.73L58.688 12.77 17.156 59.848Z"/><path fill="#282528" d="M74.96 20.6h1.44V44h-1.44V20.6Zm-4.2 0h1.44V44h-1.44V20.6Zm8.882 0h18.03v1.44h-18.03V20.6Zm10.35 3.12h7.68v1.44h-6.24V44h-1.44V23.72Zm-4.14 1.44h-6.21v-1.44h7.65V44h-1.44V25.16Zm19.044-4.56h1.44v18.51h9.93v1.44h-11.37V20.6Zm-4.11 0h1.44v21.96h14.04V44h-15.48V20.6Zm23.334 0h1.44V44h-1.44V20.6Zm-4.2 0h1.44V44h-1.44V20.6Zm11.042 0h15.63v1.44h-14.19V44h-1.44V20.6Zm4.08 3.12h11.55v1.44h-10.11v5.46h8.82v1.44h-10.26v-8.34Zm0 9.9h10.26v1.44h-8.82V44h-1.44V33.62Zm15.256-13.02h16.2v1.44h-14.76v20.52h15.36V44h-16.8V20.6Zm4.02 3.12h12.18v1.44h-10.74v4.62h9.21v1.44h-10.65v-7.5Zm0 9.09h10.65v1.44h-9.21v5.19h11.34v1.44h-12.78v-8.07Z"/></g><defs><linearGradient id="b" x1="-25.507" x2="63.581" y1="1.565" y2="34.93" gradientUnits="userSpaceOnUse"><stop stop-color="#C06FBB"/><stop offset="1" stop-color="#6E4D9B"/></linearGradient><clipPath id="a"><path fill="#fff" d="M0 0h170v60H0z"/></clipPath></defs></svg>