<svg xmlns="http://www.w3.org/2000/svg" width="42" height="42" fill="none"><path fill="#fff" d="M.493.5h41v41h-41z"/><path stroke="#18B5DC" d="M.493.5h41v41h-41z"/><path fill="#18B5DC" d="M28.938 16.926c.012.178.012.356.012.533 0 5.42-4.124 11.663-11.662 11.663-2.323 0-4.48-.673-6.295-1.84.33.038.647.05.99.05 1.916 0 3.68-.647 5.089-1.75a4.106 4.106 0 0 1-3.832-2.843c.253.038.507.063.774.063.368 0 .736-.05 1.078-.14a4.1 4.1 0 0 1-3.287-4.022v-.051c.546.304 1.18.495 1.853.52a4.096 4.096 0 0 1-1.827-3.414c0-.761.203-1.459.558-2.068a11.651 11.651 0 0 0 8.452 4.29 4.63 4.63 0 0 1-.102-.94 4.097 4.097 0 0 1 4.1-4.099 4.09 4.09 0 0 1 2.994 1.295 8.069 8.069 0 0 0 2.602-.99 4.088 4.088 0 0 1-1.802 2.259 8.218 8.218 0 0 0 2.36-.635 8.81 8.81 0 0 1-2.055 2.12Z"/></svg>