<svg xmlns="http://www.w3.org/2000/svg" width="43" height="43" fill="none"><path fill="#5DCBE6" d="M.5.5h42v42H.5z"/><path fill="#fff" d="M29.444 17.426c.013.178.013.356.013.533 0 5.42-4.125 11.663-11.663 11.663-2.322 0-4.48-.673-6.294-1.84.33.038.647.05.99.05 1.916 0 3.68-.647 5.089-1.75a4.106 4.106 0 0 1-3.833-2.843c.254.038.508.063.774.063.368 0 .736-.05 1.079-.14a4.1 4.1 0 0 1-3.287-4.022v-.051c.546.304 1.18.495 1.853.52a4.096 4.096 0 0 1-1.827-3.414c0-.761.203-1.459.558-2.068a11.651 11.651 0 0 0 8.452 4.29 4.622 4.622 0 0 1-.102-.94 4.097 4.097 0 0 1 4.1-4.099c1.18 0 2.245.495 2.994 1.295a8.072 8.072 0 0 0 2.602-.99 4.088 4.088 0 0 1-1.802 2.259 8.215 8.215 0 0 0 2.36-.635 8.81 8.81 0 0 1-2.056 2.12Z"/></svg>